<?xml version="1.0" standalone="no"?>
<!DOCTYPE svg PUBLIC "-//W3C//DTD SVG 20010904//EN"
 "http://www.w3.org/TR/2001/REC-SVG-20010904/DTD/svg10.dtd">
<svg version="1.0" xmlns="http://www.w3.org/2000/svg"
 width="604.000000pt" height="604.000000pt" viewBox="0 0 604.000000 604.000000"
 preserveAspectRatio="xMidYMid meet">
<metadata>
Created by potrace 1.14, written by Peter Selinger 2001-2017
</metadata>
<g transform="translate(0.000000,604.000000) scale(0.100000,-0.100000)"
fill="#000000" stroke="none">
<path d="M785 5828 c-11 -6 -23 -16 -27 -22 -4 -6 -8 -8 -8 -3 0 4 -17 -4 -37
-17 -21 -13 -144 -85 -273 -159 -129 -74 -251 -144 -270 -156 -19 -11 -57 -32
-83 -46 -31 -17 -48 -32 -46 -43 1 -9 1 -21 0 -27 -3 -19 -2 -227 1 -231 4 -3
90 37 98 47 3 3 30 19 60 36 30 17 158 90 283 162 125 72 233 129 238 125 6
-3 15 -16 20 -27 8 -20 26 -51 78 -139 15 -24 156 -269 210 -362 13 -23 45
-79 72 -124 27 -46 49 -88 49 -93 0 -5 4 -9 9 -9 5 0 14 -12 20 -27 6 -16 19
-42 29 -60 l19 -32 90 52 c135 78 129 65 76 155 -69 116 -102 174 -116 202 -6
14 -14 27 -17 30 -3 3 -11 16 -18 29 -39 68 -53 92 -96 164 -25 43 -46 82 -46
87 0 5 -6 15 -13 22 -7 7 -54 87 -106 178 -52 91 -100 172 -107 180 -7 8 -12
17 -11 20 1 5 -53 100 -56 100 -1 0 -11 -6 -22 -12z"/>
<path d="M3704 5791 c-43 -26 -104 -61 -134 -78 -30 -16 -158 -90 -285 -163
-340 -197 -391 -226 -406 -234 -8 -4 -23 -12 -34 -19 -11 -7 -63 -37 -115 -67
-52 -30 -104 -60 -115 -67 -11 -7 -26 -15 -34 -19 -8 -4 -75 -43 -149 -86 -74
-43 -138 -78 -143 -78 -5 0 -9 -4 -9 -9 0 -5 -8 -11 -17 -14 -10 -3 -40 -20
-68 -36 -27 -17 -57 -34 -65 -38 -16 -8 -266 -151 -415 -238 -49 -29 -106 -62
-125 -73 -74 -42 -230 -132 -360 -207 -74 -43 -155 -89 -180 -103 -25 -14 -56
-32 -70 -41 -14 -10 -36 -22 -50 -29 -14 -7 -38 -20 -55 -31 -93 -56 -419
-241 -426 -241 -5 0 -9 -3 -9 -7 0 -5 -19 -17 -43 -28 -23 -11 -44 -23 -47
-26 -3 -3 -25 -17 -50 -30 -78 -42 -101 -61 -91 -73 9 -10 187 -314 235 -400
13 -23 89 -155 169 -294 81 -139 147 -257 147 -262 0 -6 4 -10 9 -10 5 0 11
-8 14 -17 4 -10 17 -36 30 -58 27 -45 117 -198 152 -260 88 -156 139 -244 156
-267 10 -15 19 -34 19 -42 0 -8 4 -16 8 -18 5 -1 32 -45 62 -96 29 -51 57 -95
61 -98 8 -5 100 42 151 77 14 11 31 19 36 19 29 0 17 34 -64 173 -48 84 -95
166 -104 182 -9 17 -54 93 -99 169 -44 76 -81 143 -81 147 0 5 -4 9 -10 9 -5
0 -9 3 -8 8 1 4 -5 18 -14 32 -9 14 -60 102 -113 195 -137 237 -349 604 -374
646 -12 19 -27 47 -35 64 -16 33 -20 28 84 87 25 14 133 76 240 138 107 62
215 124 240 138 25 14 78 45 118 69 41 24 75 43 78 43 3 0 71 41 129 78 11 6
29 16 40 22 11 5 47 25 80 45 33 20 72 41 88 48 15 6 27 15 27 19 0 4 6 8 14
8 8 0 21 6 28 13 11 10 31 22 123 71 11 6 22 13 25 16 5 5 410 238 440 253 8
4 29 16 45 26 17 11 53 32 80 47 28 14 62 35 77 45 14 11 28 19 31 19 3 0 54
29 114 63 59 35 232 135 383 222 151 87 360 208 464 268 103 60 192 105 196
100 8 -7 196 -329 214 -363 4 -8 17 -32 29 -52 31 -52 209 -359 221 -383 17
-31 35 -47 49 -43 6 2 54 28 104 57 l93 55 -27 45 c-15 26 -36 62 -46 81 -10
19 -26 47 -35 62 -43 70 -187 324 -190 335 -2 7 -8 13 -13 13 -5 0 -9 4 -9 10
0 8 -265 469 -294 512 -11 16 -19 13 -92 -31z"/>
<path d="M5985 5386 c-11 -6 -22 -13 -25 -16 -3 -3 -16 -11 -30 -18 -14 -7
-38 -20 -55 -30 -16 -10 -57 -34 -90 -52 -33 -18 -64 -36 -70 -40 -8 -6 -270
-157 -445 -258 -19 -11 -150 -86 -290 -167 -140 -81 -286 -165 -325 -187 -38
-21 -83 -47 -100 -57 -35 -21 -484 -279 -535 -308 -19 -11 -69 -40 -110 -65
-41 -24 -82 -47 -90 -51 -8 -4 -24 -13 -35 -20 -34 -21 -188 -110 -227 -131
-191 -108 -334 -192 -336 -198 -2 -4 -10 -8 -18 -8 -19 0 -16 -7 136 -269 231
-398 582 -1004 602 -1038 41 -73 57 -100 85 -149 17 -27 41 -70 55 -95 79
-139 171 -295 177 -302 4 -4 53 18 109 50 118 67 116 55 36 186 -30 49 -54 91
-54 94 0 4 -14 29 -32 57 -49 80 -55 90 -57 101 -1 6 -8 17 -14 25 -7 8 -17
24 -23 35 -6 11 -53 92 -104 180 -109 189 -227 392 -243 420 -6 11 -46 80 -89
154 -43 73 -78 137 -78 141 0 5 -3 10 -7 12 -8 3 -46 69 -68 115 -5 13 -13 23
-17 23 -5 0 -8 6 -8 14 0 7 -7 19 -15 26 -8 7 -13 16 -10 20 3 5 1 11 -5 15
-17 11 -52 87 -43 95 4 4 33 21 64 38 31 17 122 69 203 117 81 47 150 85 154
85 3 0 13 6 21 14 9 8 40 27 69 42 29 16 69 39 90 51 20 13 48 28 62 35 14 7
48 27 77 45 29 18 54 33 57 33 3 0 30 16 60 35 30 19 57 35 60 35 2 0 71 39
153 86 81 48 169 99 194 113 80 46 333 192 349 202 88 53 261 149 269 149 6 0
11 4 11 8 0 5 28 23 63 41 34 18 82 45 107 60 25 15 70 41 100 57 30 17 74 43
97 57 24 15 47 27 53 27 5 0 10 5 10 10 0 6 4 10 9 10 5 0 40 18 78 40 l69 40
1 135 c0 74 -2 137 -6 139 -3 2 -15 -1 -26 -8z"/>
<path d="M4677 4059 l-108 -60 32 -57 c18 -31 35 -61 40 -67 4 -5 16 -27 28
-47 95 -170 154 -273 171 -298 10 -14 30 -47 45 -75 26 -48 155 -272 347 -602
48 -83 96 -167 107 -187 11 -19 31 -53 45 -75 15 -22 26 -43 26 -46 0 -2 18
-34 40 -70 22 -36 40 -68 40 -72 0 -3 8 -15 17 -26 17 -18 17 -20 -6 -38 -13
-10 -29 -19 -37 -19 -8 0 -14 -4 -14 -8 0 -8 -51 -36 -59 -32 -2 1 -7 -2 -10
-7 -3 -5 -69 -44 -146 -88 -77 -43 -142 -82 -145 -86 -3 -3 -9 -8 -15 -10 -10
-4 -145 -80 -215 -120 -19 -12 -91 -53 -160 -92 -69 -40 -133 -76 -142 -82 -9
-5 -47 -28 -85 -49 -37 -22 -164 -95 -281 -163 -117 -67 -217 -123 -223 -123
-5 0 -9 -4 -9 -10 0 -5 -4 -10 -10 -10 -5 0 -73 -37 -152 -83 -79 -46 -186
-108 -238 -138 -52 -30 -104 -59 -115 -66 -11 -6 -36 -20 -55 -31 -19 -10 -71
-40 -115 -66 -44 -27 -109 -64 -145 -84 -36 -19 -67 -38 -70 -41 -3 -3 -25
-16 -50 -29 -25 -13 -72 -39 -105 -59 -33 -19 -76 -44 -95 -55 -19 -11 -66
-39 -105 -62 -38 -22 -81 -46 -95 -53 -14 -7 -34 -18 -45 -25 -24 -16 -72 -44
-146 -86 l-57 -32 -85 147 c-47 82 -94 164 -106 183 -11 19 -33 58 -49 85 -16
28 -39 68 -52 90 -12 22 -34 60 -48 85 -14 25 -36 62 -49 82 -12 21 -23 42
-23 48 0 5 -3 10 -7 10 -5 0 -19 22 -32 48 -12 27 -31 59 -41 72 l-18 23 -51
-31 c-28 -18 -56 -32 -61 -32 -6 0 -10 -4 -10 -10 0 -5 -6 -10 -14 -10 -8 0
-27 -11 -42 -24 l-28 -23 32 -52 c18 -28 32 -54 32 -58 0 -3 6 -14 14 -22 7
-9 31 -47 51 -86 21 -38 56 -99 77 -134 21 -34 38 -64 38 -66 0 -2 18 -33 40
-69 22 -36 40 -70 40 -76 0 -5 5 -10 10 -10 6 0 10 -4 10 -10 0 -10 209 -376
241 -422 11 -15 19 -31 19 -36 0 -5 7 -15 15 -22 12 -10 54 11 237 116 123 71
235 136 249 144 84 48 386 223 399 231 8 5 87 50 175 100 88 51 190 109 227
130 37 21 82 47 100 58 18 10 101 58 183 106 83 48 173 100 202 116 85 46 98
54 103 59 4 5 393 227 445 254 11 6 22 13 25 16 3 3 75 46 160 94 85 49 198
114 250 144 52 30 115 66 139 80 25 14 67 38 93 53 27 16 53 29 58 29 4 0 10
4 12 8 2 5 15 15 29 23 49 26 144 79 179 100 19 12 98 57 175 101 77 45 142
83 144 85 4 3 -26 68 -48 103 -14 22 -133 227 -163 280 -14 25 -58 101 -98
170 -40 69 -84 145 -98 170 -14 25 -44 77 -67 115 -22 39 -44 77 -48 85 -4 8
-17 31 -28 50 -27 45 -161 274 -186 320 -11 19 -85 148 -165 285 -80 138 -149
258 -154 267 -8 15 -22 10 -117 -43z"/>
<path d="M1777 4080 c-14 -11 -28 -20 -32 -20 -3 0 -38 -19 -76 -41 l-69 -42
21 -36 c12 -20 32 -53 43 -73 12 -20 91 -157 176 -304 85 -147 167 -288 181
-313 14 -25 43 -75 64 -111 21 -36 60 -103 87 -150 27 -47 53 -92 58 -100 6
-8 49 -82 96 -165 110 -190 120 -207 145 -252 12 -21 32 -57 46 -80 l24 -42
-123 -72 c-174 -101 -178 -104 -228 -131 -25 -14 -85 -49 -135 -78 -49 -29
-110 -64 -135 -78 -25 -14 -57 -32 -72 -41 -15 -9 -152 -88 -305 -175 -153
-88 -281 -164 -285 -170 -4 -6 -8 -7 -8 -2 0 5 -8 2 -17 -6 -10 -8 -54 -34
-98 -58 -44 -24 -81 -47 -83 -52 -2 -4 -7 -8 -12 -8 -5 0 -95 -50 -202 -111
-106 -62 -326 -188 -488 -281 -162 -94 -299 -173 -303 -177 -4 -5 -9 -69 -10
-144 -2 -128 -1 -136 16 -131 15 5 174 94 237 133 15 10 219 126 255 146 11 6
39 23 62 38 24 15 45 27 47 27 3 0 29 14 58 31 29 18 96 57 148 87 52 30 127
73 165 96 39 22 72 41 75 41 3 0 16 8 30 16 86 55 531 309 541 309 5 0 9 5 9
10 0 6 4 10 10 10 5 0 47 23 94 50 47 28 89 50 95 50 5 0 11 4 13 8 3 7 159
99 298 175 30 16 66 38 80 47 14 9 50 30 80 47 52 28 325 185 380 218 14 8 51
30 83 47 31 18 57 38 57 46 0 7 -11 29 -24 50 -28 44 -309 530 -319 552 -4 8
-16 29 -27 45 -11 17 -23 37 -27 45 -3 8 -16 31 -28 50 -12 19 -33 55 -47 80
-14 25 -49 86 -78 135 -29 50 -64 110 -78 135 -14 25 -45 78 -69 118 -24 41
-43 76 -43 80 0 3 -6 13 -14 21 -7 9 -28 43 -46 76 -28 52 -60 107 -130 226
-8 14 -35 62 -59 105 -25 43 -48 81 -53 82 -4 2 -8 10 -8 18 0 19 -13 18 -43
-6z"/>
<path d="M4840 1392 c0 -6 -9 -12 -19 -12 -11 0 -23 -4 -26 -10 -3 -5 -34 -25
-68 -45 -34 -19 -68 -39 -76 -44 -14 -9 -1 -34 197 -376 19 -33 43 -76 54 -95
11 -19 44 -75 73 -125 29 -49 62 -106 73 -125 11 -19 43 -75 72 -125 92 -157
110 -189 122 -212 6 -13 15 -23 20 -23 4 0 110 59 236 132 125 72 240 139 255
147 16 9 36 21 45 26 9 6 60 34 112 64 52 30 98 59 101 63 11 16 5 273 -7 271
-5 -1 -98 -52 -205 -114 -106 -62 -207 -120 -224 -129 -16 -10 -68 -39 -115
-66 -47 -26 -88 -52 -92 -58 -8 -12 -38 11 -38 30 0 8 -4 14 -10 14 -5 0 -10
4 -10 9 0 5 -38 73 -83 152 -46 79 -146 252 -222 384 -153 265 -165 285 -165
267z"/>
</g>
</svg>
