<svg version="1.1" xmlns="http://www.w3.org/2000/svg" xmlns:xlink="http://www.w3.org/1999/xlink" viewBox="0 0 550 470"><defs><linearGradient x1="98.31188" y1="235" x2="451.68812" y2="235" gradientUnits="userSpaceOnUse" id="color-1"><stop offset="0" stop-color="#ffffff"/><stop offset="1" stop-color="#ffffff"/></linearGradient></defs><g fill="url(#color-1)" fill-rule="none" stroke="none" stroke-width="1" stroke-linecap="butt" stroke-linejoin="miter" stroke-miterlimit="10" stroke-dasharray="" stroke-dashoffset="0" font-family="none" font-weight="none" font-size="none" text-anchor="none" style="mix-blend-mode: normal"><g data-paper-data="{&quot;isGlobalGroup&quot;:true,&quot;bounds&quot;:{&quot;x&quot;:98.31187964697799,&quot;y&quot;:114.99999999999999,&quot;width&quot;:353.3762407060441,&quot;height&quot;:240}}"><g data-paper-data="{&quot;isSecondaryText&quot;:true}" fill-rule="nonzero"><path d="M206.76221,346.15644h-7.83424v-8.57922h-3.24424v17.42278h3.24424v-8.60325h7.83424v8.60325h3.24424v-17.42278h-3.24424z" data-paper-data="{&quot;glyphName&quot;:&quot;H&quot;,&quot;glyphIndex&quot;:0,&quot;firstGlyphOfWord&quot;:true,&quot;word&quot;:1}"/><path d="M243.47927,342.57575c-3.41246,0 -6.20011,2.76361 -6.20011,6.20011c0,3.41246 2.78764,6.20011 6.20011,6.20011c3.43649,0 6.20011,-2.78764 6.20011,-6.20011c0,-3.43649 -2.76361,-6.20011 -6.20011,-6.20011zM243.47927,354.73565c-2.37911,0 -2.9799,-2.66749 -2.9799,-5.95979c0,-3.2923 0.67288,-5.95979 2.9799,-5.95979c2.28299,0 2.9799,2.66749 2.9799,5.95979c0,3.2923 -0.50466,5.95979 -2.9799,5.95979z" data-paper-data="{&quot;glyphName&quot;:&quot;o&quot;,&quot;glyphIndex&quot;:1,&quot;word&quot;:1}"/><path d="M273.44925,353.60618c-0.16822,0 -0.31241,-0.09613 -0.31241,-0.69691h-0.02403v-10.11723h0.86513v-0.21628h-0.86513v-1.73026c-0.60079,1.03335 -2.30702,1.73026 -3.24424,1.73026h-0.86513v0.21628h0.86513v10.30948v0c0.09613,1.05738 0.98529,1.87445 2.04267,1.87445v0c1.15351,0 2.0667,-0.91319 2.0667,-2.0667h-0.21628c-0.04806,0.43257 -0.14419,0.69691 -0.31241,0.69691z" data-paper-data="{&quot;glyphName&quot;:&quot;t&quot;,&quot;glyphIndex&quot;:2,&quot;word&quot;:1}"/><path d="M303.0233,352.40461c-0.69691,1.12948 -1.65817,1.94655 -2.59539,1.94655c-1.80236,0 -3.24424,-2.49927 -3.24424,-5.57529c0,-0.81707 0.09613,-1.58607 0.28838,-2.28299h6.48848c-0.76901,-2.30702 -2.64346,-3.94115 -4.83032,-3.94115c-2.88377,0 -5.21482,2.78764 -5.21482,6.22414c0,3.41246 2.33105,6.20011 5.21482,6.20011c1.73026,0 3.2923,-1.03335 4.22953,-2.57136zM297.52011,346.25256c0.55272,-1.82639 1.63414,-3.05199 2.9078,-3.05199c1.24963,0 2.49927,1.32173 3.17215,3.05199z" data-paper-data="{&quot;glyphName&quot;:&quot;e&quot;,&quot;glyphIndex&quot;:3,&quot;word&quot;:1}"/><path d="M324.95136,337.57722c-0.91319,0 -1.63414,0.72094 -1.63414,1.63414c0,0.88916 0.72094,1.63414 1.63414,1.63414c0.88916,0 1.63414,-0.74497 1.63414,-1.63414c0,-0.91319 -0.74497,-1.63414 -1.63414,-1.63414zM323.31723,354.97597h3.26827v-12.40021h-3.26827z" data-paper-data="{&quot;glyphName&quot;:&quot;i&quot;,&quot;glyphIndex&quot;:4,&quot;word&quot;:1}"/><path d="M351.71338,348.00686c-2.1388,-0.67288 -4.46984,-0.62482 -4.44581,-3.02796c0.04806,-2.57136 4.63806,-3.31634 5.91173,0.16822h0.28838c-0.67288,-1.75429 -1.82639,-2.57136 -3.70084,-2.57136c-2.16283,0 -4.27759,1.44189 -4.30162,3.67681c-0.02403,3.17215 2.85974,3.98922 4.08534,4.30162c1.20157,0.31241 2.49927,0.55272 2.76361,1.87445c0.26435,1.20157 -1.05738,2.28299 -2.95586,2.33105c-1.92251,0.07209 -3.22021,-1.53801 -3.60471,-2.35508h-0.28838c0,0 1.20157,2.59539 3.84503,2.59539c1.92251,-0.02403 3.7489,-0.69691 4.61403,-2.57136c0.88916,-1.87445 0.31241,-3.65278 -2.21089,-4.42178z" data-paper-data="{&quot;glyphName&quot;:&quot;s&quot;,&quot;glyphIndex&quot;:5,&quot;lastGlyphOfWord&quot;:true,&quot;word&quot;:1}"/></g><g data-paper-data="{&quot;isPrimaryText&quot;:true}" fill-rule="nonzero"><path d="M126.24038,308.11751c-2.83552,-2.77765 -6.77052,-4.97662 -10.24258,-6.71265c-12.73089,-6.30758 -9.14309,-14.06184 -6.53905,-15.74c5.20809,-3.29846 18.22831,4.62941 17.76537,12.73089h0.75228l1.50456,-11.11059c0,0 -8.27508,-4.51368 -19.26993,-3.06699c-8.33294,1.09949 -11.16846,5.32383 -11.74714,9.37456c-0.86801,5.84463 2.08324,9.37456 6.24971,11.805c2.71978,1.50456 6.01824,3.29846 9.02736,5.26596c10.99486,7.11772 9.20096,13.19383 7.17559,15.33493c-4.34007,4.68728 -20.08008,-4.68728 -19.73287,-11.68927h-0.81015l-1.50456,11.22633c0,0 9.54816,3.24059 19.26993,2.66191c14.81412,-0.92588 14.06184,-14.23545 8.10147,-20.08008z" data-paper-data="{&quot;glyphName&quot;:&quot;S&quot;,&quot;glyphIndex&quot;:0,&quot;firstGlyphOfWord&quot;:true,&quot;word&quot;:1}"/><path d="M152.97524,284.79684h-19.26993v0.75228c2.25684,0 4.05074,0.52081 4.05074,4.16647v32.46376c0,3.5878 -1.7939,4.16647 -4.05074,4.16647v0.75228h17.24456v-0.75228c-2.25684,0 -4.05074,-0.57868 -4.05074,-4.16647v-12.21008h5.09235c4.28221,0 16.95523,-0.11574 16.95523,-12.90449c0,-10.82125 -9.89537,-12.26794 -15.97148,-12.26794zM152.04936,309.27486h-5.15022v-19.38567c0,-3.70353 1.7939,-4.34007 5.09235,-4.34007c3.70353,0 6.65478,1.62029 6.65478,11.74714c0,10.12684 -2.71978,11.97861 -6.59691,11.97861z" data-paper-data="{&quot;glyphName&quot;:&quot;P&quot;,&quot;glyphIndex&quot;:1,&quot;word&quot;:1}"/><path d="M206.96577,327.0981h-34.547v-0.75228c2.1411,0 4.05074,-0.81015 4.05074,-4.16647v-32.46376c0,-4.05074 -2.83552,-4.16647 -4.05074,-4.16647v-0.75228h33.27391l1.27309,11.51567h-0.86801c-1.33096,-4.34007 -7.98574,-10.76339 -13.4253,-10.76339h-2.71978c-3.00912,0 -4.34007,1.67816 -4.34007,3.99287v15.85574h1.50456c4.97662,-0.1736 8.96949,-5.03449 8.96949,-8.15934h0.92588v16.83949h-0.92588c0,-2.95125 -4.28221,-7.6964 -9.08522,-7.87h-1.38882v16.14508c0,3.81927 4.22434,3.99287 4.34007,3.99287h3.7614c7.98574,0 12.03647,-8.50655 13.2517,-12.26794h0.86801z" data-paper-data="{&quot;glyphName&quot;:&quot;E&quot;,&quot;glyphIndex&quot;:2,&quot;word&quot;:1}"/><path d="M245.85284,327.0981h-34.547v-0.75228c2.1411,0 4.05074,-0.81015 4.05074,-4.16647v-32.46376c0,-4.05074 -2.83552,-4.16647 -4.05074,-4.16647v-0.75228h33.27391l1.27309,11.51567h-0.86801c-1.33096,-4.34007 -7.98574,-10.76339 -13.4253,-10.76339h-2.71978c-3.00912,0 -4.34007,1.67816 -4.34007,3.99287v15.85574h1.50456c4.97662,-0.1736 8.96949,-5.03449 8.96949,-8.15934h0.92588v16.83949h-0.92588c0,-2.95125 -4.28221,-7.6964 -9.08522,-7.87h-1.38882v16.14508c0,3.81927 4.22434,3.99287 4.34007,3.99287h3.7614c7.98574,0 12.03647,-8.50655 13.2517,-12.26794h0.86801z" data-paper-data="{&quot;glyphName&quot;:&quot;E&quot;,&quot;glyphIndex&quot;:3,&quot;word&quot;:1}"/><path d="M290.75815,305.9764c0,21.23743 -14.58265,21.1217 -24.18868,21.1217h-16.37655v-0.75228c2.89338,0 4.1086,-1.15735 4.1086,-4.45581v-32.05869c0,-2.71978 -1.04162,-4.28221 -4.05074,-4.28221v-0.75228h19.55927c10.18471,0 20.94809,5.61316 20.94809,21.17957zM280.51557,305.91854c0,-12.55728 -3.64566,-20.36942 -13.2517,-20.36942c-2.66191,0 -3.81927,0.46294 -3.81927,3.87713v32.81097c0,3.87713 1.67816,4.05074 4.57155,4.05074c3.99287,0 12.49942,-1.9675 12.49942,-20.36942z" data-paper-data="{&quot;glyphName&quot;:&quot;D&quot;,&quot;glyphIndex&quot;:4,&quot;word&quot;:1}"/><path d="M322.18029,308.11751c-2.83552,-2.77765 -6.77052,-4.97662 -10.24258,-6.71265c-12.73089,-6.30758 -9.14309,-14.06184 -6.53905,-15.74c5.20809,-3.29846 18.22831,4.62941 17.76537,12.73089h0.75228l1.50456,-11.11059c0,0 -8.27508,-4.51368 -19.26993,-3.06699c-8.33294,1.09949 -11.16846,5.32383 -11.74714,9.37456c-0.86801,5.84463 2.08324,9.37456 6.24971,11.805c2.71978,1.50456 6.01824,3.29846 9.02736,5.26596c10.99486,7.11772 9.20096,13.19383 7.17559,15.33493c-4.34007,4.68728 -20.08008,-4.68728 -19.73287,-11.68927h-0.81015l-1.50456,11.22633c0,0 9.54816,3.24059 19.26993,2.66191c14.81412,-0.92588 14.06184,-14.23545 8.10147,-20.08008z" data-paper-data="{&quot;glyphName&quot;:&quot;S&quot;,&quot;glyphIndex&quot;:5,&quot;word&quot;:1}"/><path d="M370.44192,306.09214c0,11.97861 -9.95324,21.70037 -20.42729,21.70037c-10.47405,0 -20.36942,-9.72177 -20.36942,-21.70037c0,-12.03647 9.89537,-21.70037 20.36942,-21.70037c10.47405,0 20.42729,9.6639 20.42729,21.70037zM360.14148,305.8028c0,-11.34206 -2.60404,-20.65876 -10.12684,-20.65876c-7.40706,0 -10.06897,9.31669 -10.06897,20.65876c0,11.34206 2.66191,21.23743 10.06897,21.23743c7.5228,0 10.12684,-9.89537 10.12684,-21.23743z" data-paper-data="{&quot;glyphName&quot;:&quot;O&quot;,&quot;glyphIndex&quot;:6,&quot;word&quot;:1}"/><path d="M391.15854,326.34582c-2.25684,0 -4.1086,-0.75228 -4.1086,-3.99287v-16.14508h1.44669c4.80302,0.1736 9.02736,4.91875 9.02736,8.27508h0.92588v-17.5339h-0.92588c0,3.47206 -3.935,8.27508 -8.91162,8.44868h-1.56243v-15.85574c0,-2.31471 1.33096,-3.99287 4.34007,-3.99287h2.71978c5.49743,0 12.15221,7.23346 13.48317,11.57353h0.86801l-1.27309,-12.32581h-33.27391v0.75228c1.21522,0 4.05074,0.11574 4.05074,4.16647v32.46376c0,3.35632 -1.90963,4.16647 -4.05074,4.16647v0.75228h17.24456z" data-paper-data="{&quot;glyphName&quot;:&quot;F&quot;,&quot;glyphIndex&quot;:7,&quot;word&quot;:1}"/><path d="M450.6465,284.79684h-37.67185l-1.04162,13.48317h1.27309c0.63654,-3.87713 6.48118,-12.73089 12.78875,-12.73089h1.27309v36.63023c0,3.5878 -2.19897,4.16647 -4.45581,4.16647v0.75228h17.99684v-0.75228c-2.25684,0 -4.39794,-0.57868 -4.39794,-4.16647v-36.63023h0.69441c5.96037,0 13.02022,8.33294 13.36743,12.73089h1.21522z" data-paper-data="{&quot;glyphName&quot;:&quot;T&quot;,&quot;glyphIndex&quot;:8,&quot;lastGlyphOfWord&quot;:true,&quot;word&quot;:1}"/></g><g data-paper-data="{&quot;isIcon&quot;:&quot;true&quot;,&quot;iconType&quot;:&quot;icon&quot;,&quot;rawIconId&quot;:&quot;199988&quot;,&quot;selectedEffects&quot;:{&quot;container&quot;:&quot;&quot;,&quot;transformation&quot;:&quot;&quot;,&quot;pattern&quot;:&quot;&quot;},&quot;isDetailed&quot;:false,&quot;fillRule&quot;:&quot;evenodd&quot;,&quot;bounds&quot;:{&quot;x&quot;:200.2921522162978,&quot;y&quot;:114.99999999999999,&quot;width&quot;:149.4156955674044,&quot;height&quot;:141.11471248055273},&quot;iconStyle&quot;:&quot;standalone&quot;,&quot;suitableAsStandaloneIcon&quot;:true}" fill-rule="evenodd"><g data-paper-data="{&quot;isPathIcon&quot;:true}"><path d="M200.29215,133.12396l16.93697,-9.75998l12.75697,22.05396l5.31299,-3.06199l-15.82497,-27.35594l-19.18196,11.05298z"/><path d="M236.39808,209.80581l-5.31299,3.06099l-26.73195,-46.21591l89.62882,-51.65089l15.55497,26.89195l-5.31299,3.06099l-12.48797,-21.58896l-79.00384,45.52891z"/><path d="M349.70785,125.91598l-70.68886,40.73492l26.84395,46.40891l5.31099,-3.06099l-23.77595,-41.10592l62.30987,-35.90793z"/><path d="M318.84991,157.99191l-5.31199,3.06099l23.81295,41.16892l-79.00384,45.52891l-12.63697,-21.84596l-5.31299,3.06099l15.70397,27.14894l89.62882,-51.65189z"/><path d="M200.29215,245.33673l70.92886,-40.87392l-26.60995,-46.00591l-5.31299,3.06099l23.54495,40.70392l-62.55087,36.04593z"/><path d="M333.01088,247.75073l16.69697,-9.62098v7.06899l-18.94296,10.91598l-15.58997,-26.95595l5.31199,-3.06199z"/></g></g></g></g></svg>