<?xml version="1.0" encoding="UTF-8" standalone="no"?>
<svg
   version="1.1"
   viewBox="0 0 1900 1390"
   id="svg25"
   width="1900"
   height="1390"
   sodipodi:docname="logo.svg"
   inkscape:export-filename="logo.png"
   inkscape:export-xdpi="96"
   inkscape:export-ydpi="96"
   inkscape:version="1.3 (0e150ed6c4, 2023-07-21)"
   xmlns:inkscape="http://www.inkscape.org/namespaces/inkscape"
   xmlns:sodipodi="http://sodipodi.sourceforge.net/DTD/sodipodi-0.dtd"
   xmlns:xlink="http://www.w3.org/1999/xlink"
   xmlns="http://www.w3.org/2000/svg"
   xmlns:svg="http://www.w3.org/2000/svg">
  <sodipodi:namedview
     id="namedview1"
     pagecolor="#ffffff"
     bordercolor="#000000"
     borderopacity="0.25"
     inkscape:showpageshadow="2"
     inkscape:pageopacity="0.0"
     inkscape:pagecheckerboard="0"
     inkscape:deskcolor="#d1d1d1"
     inkscape:zoom="0.17995084"
     inkscape:cx="1061.401"
     inkscape:cy="58.349268"
     inkscape:window-width="1920"
     inkscape:window-height="1009"
     inkscape:window-x="1912"
     inkscape:window-y="-8"
     inkscape:window-maximized="1"
     inkscape:current-layer="svg25" />
  <defs
     id="defs2">
    <linearGradient
       x1="98.311882"
       y1="235"
       x2="451.68811"
       y2="235"
       gradientUnits="userSpaceOnUse"
       id="color-1">
      <stop
         offset="0"
         stop-color="#8360c3"
         id="stop1" />
      <stop
         offset="1"
         stop-color="#2ebf91"
         id="stop2" />
    </linearGradient>
    <linearGradient
       xlink:href="#color-1"
       id="linearGradient25"
       gradientUnits="userSpaceOnUse"
       x1="98.311882"
       y1="235"
       x2="451.68811"
       y2="235" />
    <linearGradient
       xlink:href="#color-1"
       id="linearGradient26"
       gradientUnits="userSpaceOnUse"
       x1="98.311882"
       y1="235"
       x2="451.68811"
       y2="235" />
    <linearGradient
       xlink:href="#color-1"
       id="linearGradient27"
       gradientUnits="userSpaceOnUse"
       x1="98.311882"
       y1="235"
       x2="451.68811"
       y2="235" />
    <linearGradient
       xlink:href="#color-1"
       id="linearGradient28"
       gradientUnits="userSpaceOnUse"
       x1="98.311882"
       y1="235"
       x2="451.68811"
       y2="235" />
    <linearGradient
       xlink:href="#color-1"
       id="linearGradient29"
       gradientUnits="userSpaceOnUse"
       x1="98.311882"
       y1="235"
       x2="451.68811"
       y2="235" />
    <linearGradient
       xlink:href="#color-1"
       id="linearGradient30"
       gradientUnits="userSpaceOnUse"
       x1="98.311882"
       y1="235"
       x2="451.68811"
       y2="235" />
    <linearGradient
       xlink:href="#color-1"
       id="linearGradient31"
       gradientUnits="userSpaceOnUse"
       x1="98.311882"
       y1="235"
       x2="451.68811"
       y2="235" />
    <linearGradient
       xlink:href="#color-1"
       id="linearGradient32"
       gradientUnits="userSpaceOnUse"
       x1="98.311882"
       y1="235"
       x2="451.68811"
       y2="235" />
    <linearGradient
       xlink:href="#color-1"
       id="linearGradient33"
       gradientUnits="userSpaceOnUse"
       x1="98.311882"
       y1="235"
       x2="451.68811"
       y2="235" />
    <linearGradient
       xlink:href="#color-1"
       id="linearGradient34"
       gradientUnits="userSpaceOnUse"
       x1="98.311882"
       y1="235"
       x2="451.68811"
       y2="235" />
    <linearGradient
       xlink:href="#color-1"
       id="linearGradient35"
       gradientUnits="userSpaceOnUse"
       x1="98.311882"
       y1="235"
       x2="451.68811"
       y2="235" />
    <linearGradient
       xlink:href="#color-1"
       id="linearGradient36"
       gradientUnits="userSpaceOnUse"
       x1="98.311882"
       y1="235"
       x2="451.68811"
       y2="235" />
    <linearGradient
       xlink:href="#color-1"
       id="linearGradient37"
       gradientUnits="userSpaceOnUse"
       x1="98.311882"
       y1="235"
       x2="451.68811"
       y2="235" />
    <linearGradient
       xlink:href="#color-1"
       id="linearGradient38"
       gradientUnits="userSpaceOnUse"
       x1="98.311882"
       y1="235"
       x2="451.68811"
       y2="235" />
    <linearGradient
       xlink:href="#color-1"
       id="linearGradient39"
       gradientUnits="userSpaceOnUse"
       x1="98.311882"
       y1="235"
       x2="451.68811"
       y2="235" />
    <linearGradient
       xlink:href="#color-1"
       id="linearGradient40"
       gradientUnits="userSpaceOnUse"
       x1="98.311882"
       y1="235"
       x2="451.68811"
       y2="235" />
    <linearGradient
       xlink:href="#color-1"
       id="linearGradient41"
       gradientUnits="userSpaceOnUse"
       x1="98.311882"
       y1="235"
       x2="451.68811"
       y2="235" />
    <linearGradient
       xlink:href="#color-1"
       id="linearGradient42"
       gradientUnits="userSpaceOnUse"
       x1="98.311882"
       y1="235"
       x2="451.68811"
       y2="235" />
    <linearGradient
       xlink:href="#color-1"
       id="linearGradient43"
       gradientUnits="userSpaceOnUse"
       x1="98.311882"
       y1="235"
       x2="451.68811"
       y2="235" />
    <linearGradient
       xlink:href="#color-1"
       id="linearGradient44"
       gradientUnits="userSpaceOnUse"
       x1="98.311882"
       y1="235"
       x2="451.68811"
       y2="235" />
    <linearGradient
       xlink:href="#color-1"
       id="linearGradient45"
       gradientUnits="userSpaceOnUse"
       x1="98.311882"
       y1="235"
       x2="451.68811"
       y2="235" />
    <linearGradient
       xlink:href="#color-1"
       id="linearGradient46"
       gradientUnits="userSpaceOnUse"
       x1="98.311882"
       y1="235"
       x2="451.68811"
       y2="235" />
    <linearGradient
       xlink:href="#color-1"
       id="linearGradient47"
       gradientUnits="userSpaceOnUse"
       x1="98.311882"
       y1="235"
       x2="451.68811"
       y2="235" />
    <linearGradient
       xlink:href="#color-1"
       id="linearGradient48"
       gradientUnits="userSpaceOnUse"
       x1="98.311882"
       y1="235"
       x2="451.68811"
       y2="235" />
    <linearGradient
       xlink:href="#color-1"
       id="linearGradient49"
       gradientUnits="userSpaceOnUse"
       x1="98.311882"
       y1="235"
       x2="451.68811"
       y2="235" />
    <linearGradient
       xlink:href="#color-1"
       id="linearGradient50"
       gradientUnits="userSpaceOnUse"
       x1="98.311882"
       y1="235"
       x2="451.68811"
       y2="235" />
    <linearGradient
       xlink:href="#color-1"
       id="linearGradient51"
       gradientUnits="userSpaceOnUse"
       x1="98.311882"
       y1="235"
       x2="451.68811"
       y2="235" />
  </defs>
  <g
     fill="url(#color-1)"
     stroke="none"
     stroke-width="1"
     stroke-linecap="butt"
     stroke-linejoin="miter"
     stroke-miterlimit="10"
     stroke-dasharray="none"
     stroke-dashoffset="0"
     font-family="none"
     font-size="none"
     style="mix-blend-mode:normal;fill:url(#linearGradient51)"
     id="g25"
     transform="matrix(5,0,0,5,-418.12731,-477.4648)">
    <g
       id="g24"
       style="fill:url(#linearGradient50)">
      <g
         fill-rule="nonzero"
         id="g7"
         style="fill:url(#linearGradient31)">
        <path
           d="m 206.76221,346.15644 h -7.83424 v -8.57922 h -3.24424 V 355 h 3.24424 v -8.60325 h 7.83424 V 355 h 3.24424 v -17.42278 h -3.24424 z"
           id="path2"
           style="fill:url(#linearGradient25)" />
        <path
           d="m 243.47927,342.57575 c -3.41246,0 -6.20011,2.76361 -6.20011,6.20011 0,3.41246 2.78764,6.20011 6.20011,6.20011 3.43649,0 6.20011,-2.78764 6.20011,-6.20011 0,-3.43649 -2.76361,-6.20011 -6.20011,-6.20011 z m 0,12.1599 c -2.37911,0 -2.9799,-2.66749 -2.9799,-5.95979 0,-3.2923 0.67288,-5.95979 2.9799,-5.95979 2.28299,0 2.9799,2.66749 2.9799,5.95979 0,3.2923 -0.50466,5.95979 -2.9799,5.95979 z"
           id="path3"
           style="fill:url(#linearGradient26)" />
        <path
           d="m 273.44925,353.60618 c -0.16822,0 -0.31241,-0.0961 -0.31241,-0.69691 h -0.024 v -10.11723 h 0.86513 v -0.21628 h -0.86513 v -1.73026 c -0.60079,1.03335 -2.30702,1.73026 -3.24424,1.73026 h -0.86513 v 0.21628 h 0.86513 v 10.30948 0 c 0.0961,1.05738 0.98529,1.87445 2.04267,1.87445 v 0 c 1.15351,0 2.0667,-0.91319 2.0667,-2.0667 h -0.21628 c -0.0481,0.43257 -0.14419,0.69691 -0.31241,0.69691 z"
           id="path4"
           style="fill:url(#linearGradient27)" />
        <path
           d="m 303.0233,352.40461 c -0.69691,1.12948 -1.65817,1.94655 -2.59539,1.94655 -1.80236,0 -3.24424,-2.49927 -3.24424,-5.57529 0,-0.81707 0.0961,-1.58607 0.28838,-2.28299 h 6.48848 c -0.76901,-2.30702 -2.64346,-3.94115 -4.83032,-3.94115 -2.88377,0 -5.21482,2.78764 -5.21482,6.22414 0,3.41246 2.33105,6.20011 5.21482,6.20011 1.73026,0 3.2923,-1.03335 4.22953,-2.57136 z m -5.50319,-6.15205 c 0.55272,-1.82639 1.63414,-3.05199 2.9078,-3.05199 1.24963,0 2.49927,1.32173 3.17215,3.05199 z"
           id="path5"
           style="fill:url(#linearGradient28)" />
        <path
           d="m 324.95136,337.57722 c -0.91319,0 -1.63414,0.72094 -1.63414,1.63414 0,0.88916 0.72094,1.63414 1.63414,1.63414 0.88916,0 1.63414,-0.74497 1.63414,-1.63414 0,-0.91319 -0.74497,-1.63414 -1.63414,-1.63414 z m -1.63413,17.39875 h 3.26827 v -12.40021 h -3.26827 z"
           id="path6"
           style="fill:url(#linearGradient29)" />
        <path
           d="m 351.71338,348.00686 c -2.1388,-0.67288 -4.46984,-0.62482 -4.44581,-3.02796 0.0481,-2.57136 4.63806,-3.31634 5.91173,0.16822 h 0.28838 c -0.67288,-1.75429 -1.82639,-2.57136 -3.70084,-2.57136 -2.16283,0 -4.27759,1.44189 -4.30162,3.67681 -0.024,3.17215 2.85974,3.98922 4.08534,4.30162 1.20157,0.31241 2.49927,0.55272 2.76361,1.87445 0.26435,1.20157 -1.05738,2.28299 -2.95586,2.33105 -1.92251,0.0721 -3.22021,-1.53801 -3.60471,-2.35508 h -0.28838 c 0,0 1.20157,2.59539 3.84503,2.59539 1.92251,-0.024 3.7489,-0.69691 4.61403,-2.57136 0.88916,-1.87445 0.31241,-3.65278 -2.21089,-4.42178 z"
           id="path7"
           style="fill:url(#linearGradient30)" />
      </g>
      <g
         fill-rule="nonzero"
         id="g16"
         style="fill:url(#linearGradient41)">
        <path
           d="m 126.24038,308.11751 c -2.83552,-2.77765 -6.77052,-4.97662 -10.24258,-6.71265 -12.73089,-6.30758 -9.14309,-14.06184 -6.53905,-15.74 5.20809,-3.29846 18.22831,4.62941 17.76537,12.73089 h 0.75228 l 1.50456,-11.11059 c 0,0 -8.27508,-4.51368 -19.26993,-3.06699 -8.33294,1.09949 -11.16846,5.32383 -11.74714,9.37456 -0.86801,5.84463 2.08324,9.37456 6.24971,11.805 2.71978,1.50456 6.01824,3.29846 9.02736,5.26596 10.99486,7.11772 9.20096,13.19383 7.17559,15.33493 -4.34007,4.68728 -20.08008,-4.68728 -19.73287,-11.68927 h -0.81015 l -1.50456,11.22633 c 0,0 9.54816,3.24059 19.26993,2.66191 14.81412,-0.92588 14.06184,-14.23545 8.10147,-20.08008 z"
           id="path8"
           style="fill:url(#linearGradient32)" />
        <path
           d="m 152.97524,284.79684 h -19.26993 v 0.75228 c 2.25684,0 4.05074,0.52081 4.05074,4.16647 v 32.46376 c 0,3.5878 -1.7939,4.16647 -4.05074,4.16647 v 0.75228 h 17.24456 v -0.75228 c -2.25684,0 -4.05074,-0.57868 -4.05074,-4.16647 v -12.21008 h 5.09235 c 4.28221,0 16.95523,-0.11574 16.95523,-12.90449 0,-10.82125 -9.89537,-12.26794 -15.97148,-12.26794 z m -0.92588,24.47802 h -5.15022 v -19.38567 c 0,-3.70353 1.7939,-4.34007 5.09235,-4.34007 3.70353,0 6.65478,1.62029 6.65478,11.74714 0,10.12684 -2.71978,11.97861 -6.59691,11.97861 z"
           id="path9"
           style="fill:url(#linearGradient33)" />
        <path
           d="m 206.96577,327.0981 h -34.547 v -0.75228 c 2.1411,0 4.05074,-0.81015 4.05074,-4.16647 v -32.46376 c 0,-4.05074 -2.83552,-4.16647 -4.05074,-4.16647 v -0.75228 h 33.27391 l 1.27309,11.51567 h -0.86801 c -1.33096,-4.34007 -7.98574,-10.76339 -13.4253,-10.76339 h -2.71978 c -3.00912,0 -4.34007,1.67816 -4.34007,3.99287 v 15.85574 h 1.50456 c 4.97662,-0.1736 8.96949,-5.03449 8.96949,-8.15934 h 0.92588 v 16.83949 h -0.92588 c 0,-2.95125 -4.28221,-7.6964 -9.08522,-7.87 h -1.38882 v 16.14508 c 0,3.81927 4.22434,3.99287 4.34007,3.99287 h 3.7614 c 7.98574,0 12.03647,-8.50655 13.2517,-12.26794 h 0.86801 z"
           id="path10"
           style="fill:url(#linearGradient34)" />
        <path
           d="m 245.85284,327.0981 h -34.547 v -0.75228 c 2.1411,0 4.05074,-0.81015 4.05074,-4.16647 v -32.46376 c 0,-4.05074 -2.83552,-4.16647 -4.05074,-4.16647 v -0.75228 h 33.27391 l 1.27309,11.51567 h -0.86801 c -1.33096,-4.34007 -7.98574,-10.76339 -13.4253,-10.76339 h -2.71978 c -3.00912,0 -4.34007,1.67816 -4.34007,3.99287 v 15.85574 h 1.50456 c 4.97662,-0.1736 8.96949,-5.03449 8.96949,-8.15934 h 0.92588 v 16.83949 h -0.92588 c 0,-2.95125 -4.28221,-7.6964 -9.08522,-7.87 h -1.38882 v 16.14508 c 0,3.81927 4.22434,3.99287 4.34007,3.99287 h 3.7614 c 7.98574,0 12.03647,-8.50655 13.2517,-12.26794 h 0.86801 z"
           id="path11"
           style="fill:url(#linearGradient35)" />
        <path
           d="m 290.75815,305.9764 c 0,21.23743 -14.58265,21.1217 -24.18868,21.1217 h -16.37655 v -0.75228 c 2.89338,0 4.1086,-1.15735 4.1086,-4.45581 v -32.05869 c 0,-2.71978 -1.04162,-4.28221 -4.05074,-4.28221 v -0.75228 h 19.55927 c 10.18471,0 20.94809,5.61316 20.94809,21.17957 z m -10.24258,-0.0579 c 0,-12.55728 -3.64566,-20.36942 -13.2517,-20.36942 -2.66191,0 -3.81927,0.46294 -3.81927,3.87713 v 32.81097 c 0,3.87713 1.67816,4.05074 4.57155,4.05074 3.99287,0 12.49942,-1.9675 12.49942,-20.36942 z"
           id="path12"
           style="fill:url(#linearGradient36)" />
        <path
           d="m 322.18029,308.11751 c -2.83552,-2.77765 -6.77052,-4.97662 -10.24258,-6.71265 -12.73089,-6.30758 -9.14309,-14.06184 -6.53905,-15.74 5.20809,-3.29846 18.22831,4.62941 17.76537,12.73089 h 0.75228 l 1.50456,-11.11059 c 0,0 -8.27508,-4.51368 -19.26993,-3.06699 -8.33294,1.09949 -11.16846,5.32383 -11.74714,9.37456 -0.86801,5.84463 2.08324,9.37456 6.24971,11.805 2.71978,1.50456 6.01824,3.29846 9.02736,5.26596 10.99486,7.11772 9.20096,13.19383 7.17559,15.33493 -4.34007,4.68728 -20.08008,-4.68728 -19.73287,-11.68927 h -0.81015 l -1.50456,11.22633 c 0,0 9.54816,3.24059 19.26993,2.66191 14.81412,-0.92588 14.06184,-14.23545 8.10147,-20.08008 z"
           id="path13"
           style="fill:url(#linearGradient37)" />
        <path
           d="m 370.44192,306.09214 c 0,11.97861 -9.95324,21.70037 -20.42729,21.70037 -10.47405,0 -20.36942,-9.72177 -20.36942,-21.70037 0,-12.03647 9.89537,-21.70037 20.36942,-21.70037 10.47405,0 20.42729,9.6639 20.42729,21.70037 z m -10.30044,-0.28934 c 0,-11.34206 -2.60404,-20.65876 -10.12684,-20.65876 -7.40706,0 -10.06897,9.31669 -10.06897,20.65876 0,11.34206 2.66191,21.23743 10.06897,21.23743 7.5228,0 10.12684,-9.89537 10.12684,-21.23743 z"
           id="path14"
           style="fill:url(#linearGradient38)" />
        <path
           d="m 391.15854,326.34582 c -2.25684,0 -4.1086,-0.75228 -4.1086,-3.99287 v -16.14508 h 1.44669 c 4.80302,0.1736 9.02736,4.91875 9.02736,8.27508 h 0.92588 v -17.5339 h -0.92588 c 0,3.47206 -3.935,8.27508 -8.91162,8.44868 h -1.56243 v -15.85574 c 0,-2.31471 1.33096,-3.99287 4.34007,-3.99287 h 2.71978 c 5.49743,0 12.15221,7.23346 13.48317,11.57353 h 0.86801 l -1.27309,-12.32581 h -33.27391 v 0.75228 c 1.21522,0 4.05074,0.11574 4.05074,4.16647 v 32.46376 c 0,3.35632 -1.90963,4.16647 -4.05074,4.16647 v 0.75228 h 17.24456 z"
           id="path15"
           style="fill:url(#linearGradient39)" />
        <path
           d="m 450.6465,284.79684 h -37.67185 l -1.04162,13.48317 h 1.27309 c 0.63654,-3.87713 6.48118,-12.73089 12.78875,-12.73089 h 1.27309 v 36.63023 c 0,3.5878 -2.19897,4.16647 -4.45581,4.16647 v 0.75228 h 17.99684 v -0.75228 c -2.25684,0 -4.39794,-0.57868 -4.39794,-4.16647 v -36.63023 h 0.69441 c 5.96037,0 13.02022,8.33294 13.36743,12.73089 h 1.21522 z"
           id="path16"
           style="fill:url(#linearGradient40)" />
      </g>
      <g
         fill-rule="evenodd"
         id="g23"
         style="fill:url(#linearGradient49)">
        <g
           id="g22"
           style="fill:url(#linearGradient48)">
          <path
             d="m 200.29215,133.12396 16.93697,-9.75998 12.75697,22.05396 5.31299,-3.06199 -15.82497,-27.35594 -19.18196,11.05298 z"
             id="path17"
             style="fill:url(#linearGradient42)" />
          <path
             d="M 236.39808,209.80581 231.08509,212.8668 204.35314,166.65089 293.98196,115 l 15.55497,26.89195 -5.31299,3.06099 -12.48797,-21.58896 -79.00384,45.52891 z"
             id="path18"
             style="fill:url(#linearGradient43)" />
          <path
             d="m 349.70785,125.91598 -70.68886,40.73492 26.84395,46.40891 5.31099,-3.06099 -23.77595,-41.10592 62.30987,-35.90793 z"
             id="path19"
             style="fill:url(#linearGradient44)" />
          <path
             d="m 318.84991,157.99191 -5.31199,3.06099 23.81295,41.16892 -79.00384,45.52891 -12.63697,-21.84596 -5.31299,3.06099 15.70397,27.14894 89.62882,-51.65189 z"
             id="path20"
             style="fill:url(#linearGradient45)" />
          <path
             d="m 200.29215,245.33673 70.92886,-40.87392 -26.60995,-46.00591 -5.31299,3.06099 23.54495,40.70392 -62.55087,36.04593 z"
             id="path21"
             style="fill:url(#linearGradient46)" />
          <path
             d="m 333.01088,247.75073 16.69697,-9.62098 v 7.06899 l -18.94296,10.91598 -15.58997,-26.95595 5.31199,-3.06199 z"
             id="path22"
             style="fill:url(#linearGradient47)" />
        </g>
      </g>
    </g>
  </g>
</svg>
