<?xml version="1.0" encoding="UTF-8" standalone="no"?>
<svg
   version="1.1"
   id="svg1"
   sodipodi:docname="logo-black.svg"
   width="201"
   height="191"
   inkscape:version="1.3 (0e150ed6c4, 2023-07-21)"
   xmlns:inkscape="http://www.inkscape.org/namespaces/inkscape"
   xmlns:sodipodi="http://sodipodi.sourceforge.net/DTD/sodipodi-0.dtd"
   xmlns="http://www.w3.org/2000/svg"
   xmlns:svg="http://www.w3.org/2000/svg">
  <defs
     id="defs1" />
  <sodipodi:namedview
     id="namedview1"
     pagecolor="#ffffff"
     bordercolor="#000000"
     borderopacity="0.25"
     inkscape:showpageshadow="2"
     inkscape:pageopacity="0.0"
     inkscape:pagecheckerboard="0"
     inkscape:deskcolor="#d1d1d1"
     inkscape:zoom="1.5721341"
     inkscape:cx="72.512899"
     inkscape:cy="97.001905"
     inkscape:window-width="1920"
     inkscape:window-height="1009"
     inkscape:window-x="1912"
     inkscape:window-y="-8"
     inkscape:window-maximized="1"
     inkscape:current-layer="svg1" />
  <path
     d="m 41.21778,132.10301 7.11111,-4.09778 -31.67778,-54.764436 105.75111,-60.94222 16.71556,28.89778 7.11111,-4.09778 -20.82,-35.9955604 L 5.43556,70.240794 Z M 22.67111,12.298564 0,25.363004 v -9.46444 L 25.67556,1.1030036 46.85778,37.720784 39.74667,41.818564 Z M 200,15.714124 v 9.46222 L 116.59556,73.240784 148.42,128.263 141.31111,132.36078 105.38,70.240784 Z m -48.41556,47.03333 7.11111,-4.09778 35.98,62.204436 -119.97333,69.13778 -21.02,-36.34 7.11111,-4.09778 16.91556,29.24222 L 183.46,117.85411 Z M 0,175.56523 v -9.46222 l 83.72667,-48.24889 -31.51556,-54.484436 7.11111,-4.09778 35.62,61.582216 z M 177.65111,178.79634 200,165.91856 v 9.46222 l -25.35556,14.61111 -20.86889,-36.08222 7.11111,-4.09778 z"
     fill-rule="evenodd"
     id="path1" />
</svg>
